<?xml version="1.0"?>
<svg xmlns="http://www.w3.org/2000/svg" height="512px" viewBox="0 0 512 512" width="512px" class=""><g><path d="m392 128h16v16h-16z" fill="#85bc94" data-original="#85BC94" class=""/><path d="m457.874 79.132a24.971 24.971 0 0 0 -49.807 3.676c.006.068.015.136.02.2l-43.665 21.833a8 8 0 0 0 -4.422 7.159v80h16v-75.056l38.454-19.226a25.466 25.466 0 0 0 2.207 2.161 24.786 24.786 0 0 0 16.271 6.064q.934 0 1.877-.069a25 25 0 0 0 23.065-26.742zm-24.243 10.785a8.971 8.971 0 0 1 -9.607-8.286 8.982 8.982 0 0 1 8.287-9.607q.334-.024.666-.024a8.971 8.971 0 0 1 .654 17.917z" fill="#85bc94" data-original="#85BC94" class=""/><path d="m351.339 22.063a24.971 24.971 0 1 0 -23.339 42.867v111.07h16v-111.727a24.969 24.969 0 0 0 7.339-42.21zm-23.1 13.049a8.916 8.916 0 0 1 6.133-3.087c.226-.017.45-.025.674-.025a8.971 8.971 0 1 1 -8.96 9.632 8.908 8.908 0 0 1 2.15-6.52z" fill="#85bc94" data-original="#85BC94" class=""/><path d="m249.3 72.681a80.933 80.933 0 0 0 -74.228-48.681 80.684 80.684 0 0 0 -58.972 25.54 48.044 48.044 0 0 0 -56.941 29.332 63.983 63.983 0 0 0 -35.159 57.128 64 64 0 0 0 64 64h152a64 64 0 0 0 64-64 64.007 64.007 0 0 0 -54.7-63.319z" fill="#ebebeb" data-original="#EBEBEB" class=""/><path d="m104 176h-16a40.146 40.146 0 0 1 -34.644-19.994 8 8 0 0 1 13.85-8.012 24.1 24.1 0 0 0 20.794 12.006h16a8 8 0 0 1 0 16z" fill="#f9f9f9" data-original="#F9F9F9" class=""/><path d="m56 136a8 8 0 0 1 -8-8v-8a8 8 0 0 1 16 0v8a8 8 0 0 1 -8 8z" fill="#f9f9f9" data-original="#F9F9F9" class=""/><path d="m280.771 146.614a8 8 0 0 1 -7.588-5.474l-3.509-10.54a40.023 40.023 0 0 0 -44.335-26.042 8 8 0 0 1 -7.041-2.276l-.664-.675a8 8 0 0 1 -2.188-4.287 40.011 40.011 0 0 0 -74.1-13.319 8 8 0 1 1 -13.846-8.001 56.023 56.023 0 0 1 102.2 12.05 56.036 56.036 0 0 1 55.077 37.278c.017.048.033.1.049.144l3.534 10.612a8 8 0 0 1 -7.591 10.53z" fill="#f9f9f9" data-original="#F9F9F9" class=""/><path d="m392 160h16v48h-16z" fill="#85bc94" data-original="#85BC94" class=""/><path d="m416 208v192l-160 88-15.27-8.4-144.73-79.6v-192l160-88 144 79.2z" fill="#f55648" data-original="#F55648" class="" data-old_color="#f55648" style="fill:#3D4A69"/><g fill="#d18d28"><path d="m218.175 292.544a8 8 0 0 1 -1.946-.241l-50.169-12.542a8 8 0 0 1 -6.06-7.761v-32a8 8 0 0 1 16 0v25.754l44.109 11.027a8 8 0 0 1 -1.934 15.763z" data-original="#000000"/><path d="m290.563 293.359a8 8 0 0 1 -1.934-15.763l47.371-11.842v-25.754a8 8 0 0 1 16 0v32a8 8 0 0 1 -6.06 7.761l-53.43 13.358a8.069 8.069 0 0 1 -1.947.24z" data-original="#000000"/><path d="m240 232a8 8 0 0 1 -8-8v-8a25.266 25.266 0 0 0 -17.3-24l-1.232-.411a8 8 0 1 1 5.06-15.178l1.232.41a41.247 41.247 0 0 1 28.24 39.179v8a8 8 0 0 1 -8 8z" data-original="#000000"/><path d="m272 232a8 8 0 0 1 -8-8v-8a41.246 41.246 0 0 1 28.239-39.179l1.231-.41a8 8 0 1 1 5.06 15.178l-1.23.411a25.265 25.265 0 0 0 -17.3 24v8a8 8 0 0 1 -8 8z" data-original="#000000"/></g><path d="m256 392a56 56 0 0 1 -56-56v-56h112v56a56 56 0 0 1 -56 56z" fill="#fbb540" data-original="#FBB540" class=""/><path d="m304 280h-96v-16a48 48 0 0 1 48-48 48 48 0 0 1 48 48z" fill="#ea9d2d" data-original="#EA9D2D" class="active-path" data-old_color="#ea9d2d" style="fill:#DD9731"/><path d="m304 360h-96l16-32h64z" fill="#d18d28" data-original="#D18D28" class=""/><path d="m240 288a8 8 0 0 1 -8-8v-16a24.085 24.085 0 0 1 11.994-20.784 8 8 0 1 1 8.012 13.849 8.039 8.039 0 0 0 -4.006 6.935v16a8 8 0 0 1 -8 8z" fill="#d18d28" data-original="#D18D28" class=""/><path d="m256 456a7.992 7.992 0 0 1 -4.116-1.14l-40-24 8.232-13.72 35.884 21.53 35.884-21.53 8.232 13.72-40 24a7.992 7.992 0 0 1 -4.116 1.14z" fill="#c7463b" data-original="#C7463B" class="" style="fill:#3BA6C7" data-old_color="#c7463b"/><path d="m256 280-56 128a72.6 72.6 0 0 1 -19.053-98.06l19.053-29.94z" fill="#ea9d2d" data-original="#EA9D2D" class="active-path" data-old_color="#ea9d2d" style="fill:#DD9731"/><path d="m257.59 280 56 128a72.6 72.6 0 0 0 19.053-98.06l-19.053-29.94z" fill="#ea9d2d" data-original="#EA9D2D" class="active-path" data-old_color="#ea9d2d" style="fill:#DD9731"/><path d="m416 208v192l-160 88-15.27-8.4 159.27-87.6v-192.8z" fill="#c7463b" data-original="#C7463B" class="" style="fill:#3BA6C7" data-old_color="#c7463b"/></g> </svg>
